<svg xmlns="http://www.w3.org/2000/svg" viewBox="0 0 90 104" width="90" height="104" style="--skin:#ad7544;--skinSh:#3a3640">
  <g stroke="#2a201a" stroke-width="3" stroke-linejoin="round" stroke-linecap="round" style="paint-order:stroke">
    <ellipse cx="45" cy="99" rx="24" ry="3.6" fill="rgba(0,0,0,.16)" stroke="none"></ellipse>
    <rect x="40.5" y="62" width="9" height="22" rx="2" style="fill:var(--skin)" stroke-width="2.6"></rect>
    <path d="M24,86 Q28,75 33,84 Q37,75 41,84 Q45,76 49,84 Q53,75 57,84 Q62,75 66,86 Q56,94 45,95 Q34,94 24,86 Z" style="fill:var(--skinSh)" stroke-width="2.6"></path>
      <path d="M30,40 C26,22 40,16 45,18 C50,16 64,22 60,40 C54,32 36,32 30,40 Z" fill="#3a4a3a" stroke-width="3"></path>
      <path d="M30,38 l-3,-6 5,4 M60,38 l3,-6 -5,4" fill="#3a4a3a" stroke-width="2.4" stroke-linejoin="round"></path>
      <path style="fill:var(--skin)" d="M33,44 C33,36 57,36 57,44 C57,55 50,64 45,64 C40,64 33,55 33,44 Z" stroke-width="3"></path>
      <circle cx="40" cy="46" r="6" fill="#1a2a22" stroke-width="2.6"></circle>
      <circle cx="51" cy="46" r="6" fill="#1a2a22" stroke-width="2.6"></circle>
      <line x1="45.6" y1="46" x2="45.4" y2="46" stroke-width="2.4"></line>
      <circle cx="38" cy="44" r="1.3" fill="#9fd0b0" stroke="none"></circle>
      <circle cx="49" cy="44" r="1.3" fill="#9fd0b0" stroke="none"></circle>
      <ellipse cx="45" cy="57" rx="3.4" ry="2.8" fill="#5a2a2a" stroke-width="2"></ellipse>
  </g>
</svg>