<svg xmlns="http://www.w3.org/2000/svg" viewBox="0 0 90 104" width="90" height="104" style="--skin:#ad7544;--skinSh:#3a3640">
  <g stroke="#2a201a" stroke-width="3" stroke-linejoin="round" stroke-linecap="round" style="paint-order:stroke">
    <ellipse cx="45" cy="99" rx="24" ry="3.6" fill="rgba(0,0,0,.16)" stroke="none"></ellipse>
    <rect x="40.5" y="62" width="9" height="22" rx="2" style="fill:var(--skin)" stroke-width="2.6"></rect>
    <path d="M24,86 Q28,75 33,84 Q37,75 41,84 Q45,76 49,84 Q53,75 57,84 Q62,75 66,86 Q56,94 45,95 Q34,94 24,86 Z" style="fill:var(--skinSh)" stroke-width="2.6"></path>
      <path d="M30,42 C28,22 62,22 60,42 C56,32 50,30 45,30 C40,30 34,32 30,42 Z" fill="#5a3a22" stroke-width="3"></path>
      <path d="M31,30 C34,22 56,22 59,30 C52,26 38,26 31,30 Z" fill="#ece4d2" stroke-width="2.6"></path>
      <path d="M45,21 q3,-3 6,0" fill="none" stroke-width="2"></path>
      <ellipse style="fill:var(--skin)" cx="45" cy="46" rx="12.5" ry="15" stroke-width="3"></ellipse>
      <ellipse cx="41" cy="45" rx="3.6" ry="4.4" fill="#fbf7ee" stroke-width="2"></ellipse>
      <ellipse cx="50" cy="45" rx="3.6" ry="4.4" fill="#fbf7ee" stroke-width="2"></ellipse>
      <circle cx="41" cy="46" r="1.6" fill="#2a201a" stroke="none"></circle>
      <circle cx="50" cy="46" r="1.6" fill="#2a201a" stroke="none"></circle>
      <path d="M36,40 l-2,-2 M55,40 l2,-2" stroke-width="1.6"></path>
      <path d="M45,46 q-1.4,4 0,5.5" fill="none" stroke-width="1.8"></path>
      <circle cx="36" cy="52" r="2.4" fill="#e0907a" stroke="none" opacity=".6"></circle>
      <circle cx="54" cy="52" r="2.4" fill="#e0907a" stroke="none" opacity=".6"></circle>
      <path d="M40,55 q5,3 9,0" fill="none" stroke-width="2.2"></path>
  </g>
</svg>