<svg xmlns="http://www.w3.org/2000/svg" viewBox="0 0 90 104" width="90" height="104" style="--skin:#ad7544;--skinSh:#3a3640">
  <g stroke="#2a201a" stroke-width="3" stroke-linejoin="round" stroke-linecap="round" style="paint-order:stroke">
    <ellipse cx="45" cy="99" rx="24" ry="3.6" fill="rgba(0,0,0,.16)" stroke="none"></ellipse>
    <rect x="40.5" y="62" width="9" height="22" rx="2" style="fill:var(--skin)" stroke-width="2.6"></rect>
    <path d="M24,86 Q28,75 33,84 Q37,75 41,84 Q45,76 49,84 Q53,75 57,84 Q62,75 66,86 Q56,94 45,95 Q34,94 24,86 Z" style="fill:var(--skinSh)" stroke-width="2.6"></path>
      <path d="M31,38 C31,28 59,28 59,38 C53,33 37,33 31,38 Z" fill="#ece4d2" stroke-width="3"></path>
      <rect x="31" y="35.5" width="28" height="4" fill="#3f7a4a" stroke-width="1.8"></rect>
      <path style="fill:var(--skin)" d="M32,42 C32,34 58,34 58,42 C58,53 51,63 45,64 C39,63 32,53 32,42 Z" stroke-width="3"></path>
      <path d="M32,44 C32,38 58,38 58,44 C58,48 54,50 51,49 C49,48 47,48 45,49 C43,48 41,48 39,49 C36,50 32,48 32,44 Z" fill="#3f7a4a" stroke-width="2.4"></path>
      <circle cx="40" cy="44" r="2.7" fill="#fbf7ee" stroke-width="1.6"></circle>
      <circle cx="50" cy="44" r="2.7" fill="#fbf7ee" stroke-width="1.6"></circle>
      <circle cx="40.5" cy="44.5" r="1.3" fill="#2a201a" stroke="none"></circle>
      <circle cx="50.5" cy="44.5" r="1.3" fill="#2a201a" stroke="none"></circle>
      <path style="fill:var(--skin)" d="M44,49 q-1.5,3 0,4.5 q1.6,.5 2.6,-1 Z" stroke-width="1.6"></path>
      <path d="M38,57 Q45,61 52,56" fill="none" stroke-width="2.2"></path>
      <path d="M38,54 q4,2 7,0 q3,2 7,0" fill="none" stroke-width="1.7"></path>
  </g>
</svg>