<svg xmlns="http://www.w3.org/2000/svg" viewBox="0 0 90 104" width="90" height="104" style="--skin:#f0d9b8;--skinSh:#ece4d2">
  <g stroke="#2a201a" stroke-width="3" stroke-linejoin="round" stroke-linecap="round" style="paint-order:stroke">
    <ellipse cx="45" cy="99" rx="24" ry="3.6" fill="rgba(0,0,0,.16)" stroke="none"></ellipse>
    <rect x="40.5" y="62" width="9" height="22" rx="2" style="fill:var(--skin)" stroke-width="2.6"></rect>
    <path d="M24,86 Q28,75 33,84 Q37,75 41,84 Q45,76 49,84 Q53,75 57,84 Q62,75 66,86 Q56,94 45,95 Q34,94 24,86 Z" style="fill:var(--skinSh)" stroke-width="2.6"></path>
      <path d="M30,40 C30,24 60,24 60,40 C54,34 36,34 30,40 Z" fill="#a83232" stroke-width="3"></path>
      <path d="M44,25 q4,-4 7,-1" fill="none" stroke-width="2.4"></path>
      <path style="fill:var(--skin)" d="M32,42 C32,34 58,34 58,42 C58,52 52,60 45,62 C38,60 32,52 32,42 Z" stroke-width="3"></path>
      <path d="M38,58 C38,66 45,77 45,77 C45,77 52,66 52,58 C49,62 41,62 38,58 Z" fill="#cfc7ba" stroke-width="2.6"></path>
      <path d="M31,42 C31,36 59,36 59,42 C59,46 56,48 53,48 C53,48 52,54 49,58 L47,52 C46,49 44,49 43,52 L41,58 C38,54 37,48 37,48 C34,48 31,46 31,42 Z" fill="#7a4a2a" stroke-width="2.4"></path>
      <circle cx="40" cy="44" r="2.8" fill="#fbf7ee" stroke-width="1.6"></circle>
      <circle cx="50" cy="44" r="2.8" fill="#fbf7ee" stroke-width="1.6"></circle>
      <circle cx="40" cy="44.5" r="1.3" fill="#2a201a" stroke="none"></circle>
      <circle cx="50" cy="44.5" r="1.3" fill="#2a201a" stroke="none"></circle>
      <path d="M35,40 q4,-2 7,-0.5 M48,39.5 q4,-1.5 7,0.5" fill="none" stroke-width="1.8"></path>
  </g>
</svg>