<svg xmlns="http://www.w3.org/2000/svg" viewBox="0 0 90 104" width="90" height="104" style="--skin:#f0d9b8;--skinSh:#ece4d2">
  <g stroke="#2a201a" stroke-width="3" stroke-linejoin="round" stroke-linecap="round" style="paint-order:stroke">
    <ellipse cx="45" cy="99" rx="24" ry="3.6" fill="rgba(0,0,0,.16)" stroke="none"></ellipse>
    <rect x="40.5" y="62" width="9" height="22" rx="2" style="fill:var(--skin)" stroke-width="2.6"></rect>
    <path d="M24,86 Q28,75 33,84 Q37,75 41,84 Q45,76 49,84 Q53,75 57,84 Q62,75 66,86 Q56,94 45,95 Q34,94 24,86 Z" style="fill:var(--skinSh)" stroke-width="2.6"></path>
      <path d="M33,36 C33,26 45,26 45,36 Z" fill="#3f7a4a" stroke-width="3"></path>
      <path d="M45,36 C45,26 57,26 57,36 Z" fill="#c0322e" stroke-width="3"></path>
      <path d="M45,26 l3,-6 -6,0 Z" fill="#e6bf48" stroke-width="1.8"></path>
      <path style="fill:var(--skin)" d="M32,42 C32,34 58,34 58,42 C58,53 51,63 45,64 C39,63 32,53 32,42 Z" stroke-width="3"></path>
      <path d="M32,44 C32,37 58,37 58,44 C58,48 54,50 51,49 C49,48 47,48 45,49 C43,48 41,48 39,49 C36,50 32,48 32,44 Z" fill="#23212a" stroke-width="2.4"></path>
      <circle cx="45" cy="39" r="2" fill="#23212a" stroke-width="1.5"></circle>
      <circle cx="40" cy="44" r="2.7" fill="#fbf7ee" stroke-width="1.6"></circle>
      <circle cx="50" cy="44" r="2.7" fill="#fbf7ee" stroke-width="1.6"></circle>
      <circle cx="40.5" cy="44.5" r="1.3" fill="#2a201a" stroke="none"></circle>
      <circle cx="50.5" cy="44.5" r="1.3" fill="#2a201a" stroke="none"></circle>
      <path style="fill:var(--skin)" d="M44,49 q-1.5,3 0,4.5 q1.6,.5 2.6,-1 Z" stroke-width="1.6"></path>
      <path d="M37,56 Q45,62 53,56" fill="none" stroke-width="2.4"></path>
    <g transform="translate(45,12)" stroke="#9a6f17" stroke-width="1.2" stroke-linejoin="round">
      <path d="M-10,-2 C-10,-6 -3,-7 0,-4 C3,-7 10,-6 10,-2 C10,3 6,5 3,4 C1,3 -1,3 -3,4 C-6,5 -10,3 -10,-2 Z" fill="#e6bf48"></path>
      <circle cx="-5" cy="-1" r="1.9" fill="#efe9dd" stroke-width=".9"></circle>
      <circle cx="5" cy="-1" r="1.9" fill="#efe9dd" stroke-width=".9"></circle>
      <path d="M0,-4 L0,-7" stroke-width="1"></path>
    </g>
  </g>
</svg>