<svg xmlns="http://www.w3.org/2000/svg" viewBox="0 0 90 104" width="90" height="104" style="--skin:#f0d9b8;--skinSh:#ece4d2">
  <g stroke="#2a201a" stroke-width="3" stroke-linejoin="round" stroke-linecap="round" style="paint-order:stroke">
    <ellipse cx="45" cy="99" rx="24" ry="3.6" fill="rgba(0,0,0,.16)" stroke="none"></ellipse>
    <rect x="40.5" y="62" width="9" height="22" rx="2" style="fill:var(--skin)" stroke-width="2.6"></rect>
    <path d="M24,86 Q28,75 33,84 Q37,75 41,84 Q45,76 49,84 Q53,75 57,84 Q62,75 66,86 Q56,94 45,95 Q34,94 24,86 Z" style="fill:var(--skinSh)" stroke-width="2.6"></path>
      <path d="M31,40 C31,26 59,26 59,40 C53,34 37,34 31,40 Z" fill="#23212a" stroke-width="3"></path>
      <ellipse style="fill:var(--skin)" cx="45" cy="47" rx="14" ry="16" stroke-width="3"></ellipse>
      <path d="M36,41 q4,-2 7,0 M47,41 q4,-2 7,0" fill="none" stroke-width="1.6"></path>
      <circle cx="40" cy="46" r="2.6" fill="#2a201a" stroke="none"></circle>
      <circle cx="50" cy="46" r="2.6" fill="#2a201a" stroke="none"></circle>
      <path d="M40,49 q-1.2,4 0,5 q1.8,-1 1,-5 Z" fill="#8ec0d8" stroke-width="1.3"></path>
      <path d="M45,48 q-1.2,3.5 0,4.5" fill="none" stroke-width="1.6"></path>
      <path d="M41,58 q4,-3 8,0" fill="none" stroke-width="2"></path>
  </g>
</svg>