<svg xmlns="http://www.w3.org/2000/svg" viewBox="0 0 90 104" width="180" height="208" style="--skin:#B5763E;--skinSh:#945F31">
  <g stroke="#2a201a" stroke-width="3" stroke-linejoin="round" stroke-linecap="round" style="paint-order:stroke">
    <ellipse cx="45" cy="99" rx="23" ry="3.6" fill="rgba(0,0,0,.16)" stroke="none"></ellipse>
    <path d="M27,97 H63 L58,90 H32 Z" fill="#d8c39a" stroke-width="3"></path>
    <path d="M29,90 C29,81 35,77 39,75 Q45,73 51,75 C57,77 61,81 61,90 Z" style="fill:var(--skinSh)" stroke-width="3"></path>
      <path d="M24,42 C20,20 38,16 45,18 C52,16 70,20 66,42 C58,34 52,36 45,36 C38,36 32,34 24,42 Z" fill="#a85a36" stroke-width="3"></path>
      <path d="M28,30 l2,-7 4,6 M42,26 l2,-7 4,7 M56,30 l2,-7 4,6" fill="#a85a36" stroke-width="2.6" stroke-linejoin="round"></path>
      <ellipse style="fill:var(--skin)" cx="45" cy="49" rx="12" ry="14" stroke-width="3"></ellipse>
      <path d="M36,44 L43,46 M54,44 L47,46" fill="none" stroke-width="2.2"></path>
      <circle cx="40" cy="48" r="3.6" fill="#fbf7ee" stroke-width="2"></circle>
      <circle cx="50" cy="48" r="3.6" fill="#fbf7ee" stroke-width="2"></circle>
      <circle cx="41" cy="48.4" r="1.5" fill="#2a201a" stroke="none"></circle>
      <circle cx="51" cy="48.4" r="1.5" fill="#2a201a" stroke="none"></circle>
      <path style="fill:var(--skin)" d="M44,49 q-2,4 0,6 q2,1 3,-1 Z" stroke-width="1.8"></path>
      <path d="M38,58 Q45,62 52,57" fill="none" stroke-width="2.2"></path>
    <g stroke="#9a6f17" stroke-width="2" stroke-linejoin="round">
      <path d="M35,16 L35,8 L40,12 L45,5 L50,12 L55,8 L55,16 Z" fill="#ecc23a"></path>
      <rect x="35" y="15.5" width="20" height="3.4" fill="#ecc23a"></rect>
      <circle cx="45" cy="5" r="1.9" fill="#e0563a" stroke-width="1.4"></circle>
    </g>
  </g>
</svg>