<svg xmlns="http://www.w3.org/2000/svg" viewBox="0 0 90 104" width="180" height="208" style="--skin:#B5763E;--skinSh:#945F31">
  <g stroke="#2a201a" stroke-width="3" stroke-linejoin="round" stroke-linecap="round" style="paint-order:stroke">
    <ellipse cx="45" cy="99" rx="23" ry="3.6" fill="rgba(0,0,0,.16)" stroke="none"></ellipse>
    <path d="M27,97 H63 L58,90 H32 Z" fill="#d8c39a" stroke-width="3"></path>
    <path d="M29,90 C29,81 35,77 39,75 Q45,73 51,75 C57,77 61,81 61,90 Z" style="fill:var(--skinSh)" stroke-width="3"></path>
      <ellipse style="fill:var(--skin)" cx="26" cy="48" rx="4" ry="5" stroke-width="2.6"></ellipse>
      <ellipse style="fill:var(--skin)" cx="64" cy="48" rx="4" ry="5" stroke-width="2.6"></ellipse>
      <path style="fill:var(--skin)" d="M27,44 C27,28 63,28 63,44 C63,58 57,67 45,68 C33,67 27,58 27,44 Z" stroke-width="3"></path>
      <path d="M25,40 q-4,-5 1,-8 q3,4 1,8 Z" fill="#9a978c" stroke-width="2.2"></path>
      <path d="M65,40 q4,-5 -1,-8 q-3,4 -1,8 Z" fill="#9a978c" stroke-width="2.2"></path>
      <path d="M34,41 q5,-3 9,-1 M47,40 q5,-2 9,1" fill="none" stroke-width="2.4"></path>
      <circle cx="40" cy="46" r="5.4" fill="#fbf7ee" stroke-width="2.2"></circle>
      <circle cx="51" cy="46" r="5.4" fill="#fbf7ee" stroke-width="2.2"></circle>
      <circle cx="40" cy="47" r="1.9" fill="#2a201a" stroke="none"></circle>
      <circle cx="51" cy="47" r="1.9" fill="#2a201a" stroke="none"></circle>
      <path style="fill:var(--skin)" d="M44,47 q-3,7 0,10 q3,1 4,-1 q1,-6 -1,-9 Z" stroke-width="2.4"></path>
      <path d="M40,62 q5,2 10,0" fill="none" stroke-width="2.4"></path>
      <g fill="#2a201a" stroke="none" opacity=".4"><circle cx="37" cy="61" r="0.8"></circle><circle cx="42" cy="64" r="0.8"></circle><circle cx="48" cy="64" r="0.8"></circle><circle cx="53" cy="61" r="0.8"></circle></g>
  </g>
</svg>