<svg xmlns="http://www.w3.org/2000/svg" viewBox="0 0 90 104" width="180" height="208" style="--skin:#B5763E;--skinSh:#945F31">
  <g stroke="#2a201a" stroke-width="3" stroke-linejoin="round" stroke-linecap="round" style="paint-order:stroke">
    <ellipse cx="45" cy="99" rx="23" ry="3.6" fill="rgba(0,0,0,.16)" stroke="none"></ellipse>
    <path d="M27,97 H63 L58,90 H32 Z" fill="#d8c39a" stroke-width="3"></path>
    <path d="M29,90 C29,81 35,77 39,75 Q45,73 51,75 C57,77 61,81 61,90 Z" style="fill:var(--skinSh)" stroke-width="3"></path>
      <path style="fill:var(--skin)" d="M28,46 C28,30 62,30 62,46 C62,58 56,66 45,67 C34,66 28,58 28,46 Z" stroke-width="3"></path>
      <ellipse style="fill:var(--skin)" cx="26" cy="49" rx="3.6" ry="4.6" stroke-width="2.4"></ellipse>
      <ellipse style="fill:var(--skin)" cx="64" cy="49" rx="3.6" ry="4.6" stroke-width="2.4"></ellipse>
      <path d="M27,43 C29,30 61,30 63,43 C58,36 52,35 45,35 C40,35 33,36 27,43 Z" fill="#6b4a2b" stroke-width="3"></path>
      <path d="M45,34 C41,37 34,37 30,41" fill="none" stroke-width="2"></path>
      <circle cx="39" cy="45" r="5.4" fill="#fbf7ee" stroke-width="2.2"></circle>
      <circle cx="51" cy="45" r="5.4" fill="#fbf7ee" stroke-width="2.2"></circle>
      <line x1="44.4" y1="45" x2="45.6" y2="45" stroke-width="2"></line>
      <circle cx="39" cy="46" r="1.8" fill="#2a201a" stroke="none"></circle>
      <circle cx="51" cy="46" r="1.8" fill="#2a201a" stroke="none"></circle>
      <path style="fill:var(--skin)" d="M44,47 q-2,4 0,6 q2,1 3,-1 q1,-4 -1,-6 Z" stroke-width="2"></path>
      <path d="M32,56 Q38,53 45,55 Q52,53 58,56 Q53,63 45,58 Q37,63 32,56 Z" fill="#6b4a2b" stroke-width="2.4"></path>
  </g>
</svg>