<svg xmlns="http://www.w3.org/2000/svg" viewBox="0 0 90 104" width="180" height="208" style="--skin:#B5763E;--skinSh:#945F31">
  <g stroke="#2a201a" stroke-width="3" stroke-linejoin="round" stroke-linecap="round" style="paint-order:stroke">
    <ellipse cx="45" cy="99" rx="23" ry="3.6" fill="rgba(0,0,0,.16)" stroke="none"></ellipse>
    <path d="M27,97 H63 L58,90 H32 Z" fill="#d8c39a" stroke-width="3"></path>
    <path d="M29,90 C29,81 35,77 39,75 Q45,73 51,75 C57,77 61,81 61,90 Z" style="fill:var(--skinSh)" stroke-width="3"></path>
      <path d="M28,43 C28,31 34,25 40,27 C42,21 50,23 51,28 C56,25 62,29 62,43 C56,39 50,38 45,38 C38,38 33,39 28,43 Z" fill="#7a5230" stroke-width="3"></path>
      <path d="M30,40 l3,-7 3,6 M44,37 l2,-8 3,7 M55,40 l2,-7 3,6" fill="#7a5230" stroke-width="2.4" stroke-linejoin="round"></path>
      <path style="fill:var(--skin)" d="M30,45 C30,33 60,33 60,45 C60,58 53,66 45,66 C37,66 30,58 30,45 Z" stroke-width="3"></path>
      <ellipse style="fill:var(--skin)" cx="28" cy="49" rx="3.3" ry="4.3" stroke-width="2.2"></ellipse>
      <ellipse style="fill:var(--skin)" cx="62" cy="49" rx="3.3" ry="4.3" stroke-width="2.2"></ellipse>
      <circle cx="39" cy="46" r="5.5" fill="#fbf7ee" stroke-width="2.2"></circle>
      <circle cx="51" cy="46" r="5.5" fill="#fbf7ee" stroke-width="2.2"></circle>
      <circle cx="40" cy="47" r="1.9" fill="#2a201a" stroke="none"></circle>
      <circle cx="52" cy="47" r="1.9" fill="#2a201a" stroke="none"></circle>
      <path style="fill:var(--skin)" d="M44,48 q-2,3 0,5 q2,1 3,-1 Z" stroke-width="2"></path>
      <path d="M38,58 Q46,62 53,57" fill="none" stroke-width="2.6"></path>
      <g fill="#2a201a" stroke="none" opacity=".4"><circle cx="35" cy="55" r="0.8"></circle><circle cx="37" cy="57" r="0.8"></circle><circle cx="53" cy="55" r="0.8"></circle><circle cx="55" cy="57" r="0.8"></circle></g>
  </g>
</svg>