<svg xmlns="http://www.w3.org/2000/svg" viewBox="0 0 90 104" width="180" height="208" style="--skin:#FBD23E;--skinSh:#E2B22C">
  <g stroke="#2a201a" stroke-width="3" stroke-linejoin="round" stroke-linecap="round" style="paint-order:stroke">
    <ellipse cx="45" cy="99" rx="23" ry="3.6" fill="rgba(0,0,0,.16)" stroke="none"></ellipse>
    <path d="M27,97 H63 L58,90 H32 Z" fill="#d8c39a" stroke-width="3"></path>
    <path d="M29,90 C29,81 35,77 39,75 Q45,73 51,75 C57,77 61,81 61,90 Z" style="fill:var(--skinSh)" stroke-width="3"></path>
      <path style="fill:var(--skin)" d="M30,44 C30,31 60,31 60,44 C60,58 53,67 45,67 C37,67 30,58 30,44 Z" stroke-width="3"></path>
      <ellipse style="fill:var(--skin)" cx="28" cy="48" rx="3.4" ry="4.4" stroke-width="2.2"></ellipse>
      <ellipse style="fill:var(--skin)" cx="62" cy="48" rx="3.4" ry="4.4" stroke-width="2.2"></ellipse>
      <path d="M43,32 C42,24 51,24 50,33 C48,30 45,30 43,32 Z" fill="#6b4a2b" stroke-width="2.8"></path>
      <circle cx="39" cy="45" r="6" fill="#fbf7ee" stroke-width="2.2"></circle>
      <circle cx="52" cy="45" r="6" fill="#fbf7ee" stroke-width="2.2"></circle>
      <circle cx="39" cy="47" r="1.9" fill="#2a201a" stroke="none"></circle>
      <circle cx="52" cy="44" r="1.9" fill="#2a201a" stroke="none"></circle>
      <path style="fill:var(--skin)" d="M44,47 q-2,4 0,5 q2,1 3,-1 Z" stroke-width="2"></path>
      <path d="M40,57 q5,5 10,0 q-5,2 -10,0 Z" fill="#7a3b2e" stroke-width="2.2"></path>
  </g>
</svg>