<svg xmlns="http://www.w3.org/2000/svg" viewBox="0 0 90 104" width="180" height="208" style="--skin:#FBD23E;--skinSh:#E2B22C">
  <g stroke="#2a201a" stroke-width="3" stroke-linejoin="round" stroke-linecap="round" style="paint-order:stroke">
    <ellipse cx="45" cy="99" rx="23" ry="3.6" fill="rgba(0,0,0,.16)" stroke="none"></ellipse>
    <path d="M27,97 H63 L58,90 H32 Z" fill="#d8c39a" stroke-width="3"></path>
    <path d="M29,90 C29,81 35,77 39,75 Q45,73 51,75 C57,77 61,81 61,90 Z" style="fill:var(--skinSh)" stroke-width="3"></path>
      <path d="M33,32 C37,26 53,26 57,32 C52,30 47,30 45,30 C40,30 36,30 33,32 Z" fill="#8f8c82" stroke-width="2.6"></path>
      <path style="fill:var(--skin)" d="M33,34 C33,30 57,30 57,36 C57,52 51,66 45,66 C39,66 33,52 33,34 Z" stroke-width="3"></path>
      <path d="M35,40 L43,43 M55,40 L47,43" fill="none" stroke-width="2.4"></path>
      <circle cx="40" cy="46" r="3.2" fill="#fbf7ee" stroke-width="2"></circle>
      <circle cx="50" cy="46" r="3.2" fill="#fbf7ee" stroke-width="2"></circle>
      <circle cx="40" cy="46.4" r="1.3" fill="#2a201a" stroke="none"></circle>
      <circle cx="50" cy="46.4" r="1.3" fill="#2a201a" stroke="none"></circle>
      <path style="fill:var(--skin)" d="M44,47 q-3,8 -1,11 q3,1 4,-1 q0,-7 -1,-10 Z" stroke-width="2"></path>
      <path d="M39,60 Q45,63 51,60" fill="none" stroke-width="2"></path>
    <g stroke="#9a6f17" stroke-width="2" stroke-linejoin="round">
      <path d="M35,16 L35,8 L40,12 L45,5 L50,12 L55,8 L55,16 Z" fill="#ecc23a"></path>
      <rect x="35" y="15.5" width="20" height="3.4" fill="#ecc23a"></rect>
      <circle cx="45" cy="5" r="1.9" fill="#e0563a" stroke-width="1.4"></circle>
    </g>
  </g>
</svg>