<svg xmlns="http://www.w3.org/2000/svg" viewBox="0 0 90 104" width="90" height="104" style="--skin:#a4623a;--skinSh:#86502f">
  <g stroke="#2a201a" stroke-width="3" stroke-linejoin="round" stroke-linecap="round" style="paint-order:stroke">
    <ellipse cx="45" cy="99" rx="23" ry="3.6" fill="rgba(0,0,0,.16)" stroke="none"></ellipse>
    <path d="M30,96 H60 L57,89 H33 Z" fill="#cfc4a6" stroke-width="3"></path>
    <path d="M30,90 C30,80 36,76 40,74 Q45,72 50,74 C54,76 60,80 60,90 Z" style="fill:var(--skinSh)" stroke-width="3"></path>
    <path d="M40,74 q5,4 10,0" fill="none" stroke-width="1.8" opacity=".45"></path>
      <path d="M30,40 C26,16 64,16 60,40 C56,30 50,28 45,28 C40,28 34,30 30,40 Z" fill="#7a5230" stroke-width="3"></path>
      <ellipse style="fill:var(--skin)" cx="45" cy="46" rx="12.5" ry="15" stroke-width="3"></ellipse>
      <circle style="fill:var(--skin)" cx="32" cy="48" r="2.6" stroke-width="2"></circle>
      <circle style="fill:var(--skin)" cx="58" cy="48" r="2.6" stroke-width="2"></circle>
      <circle cx="32" cy="52" r="1.5" fill="#e6bf48" stroke-width="1.2"></circle>
      <circle cx="58" cy="52" r="1.5" fill="#e6bf48" stroke-width="1.2"></circle>
      <path d="M33,33 Q45,27 57,33 L57,30 Q45,24 33,30 Z" fill="#e6bf48" stroke="#9a6f17" stroke-width="1.3"></path>
      <path d="M45,22 l2.6,5 -5.2,0 Z" fill="#e6bf48" stroke="#9a6f17" stroke-width="1.1"></path>
      <ellipse cx="41" cy="45" rx="3.8" ry="4.6" fill="#fbf7ee" stroke-width="2"></ellipse>
      <ellipse cx="50" cy="45" rx="3.8" ry="4.6" fill="#fbf7ee" stroke-width="2"></ellipse>
      <circle cx="41" cy="46" r="1.6" fill="#2a201a" stroke="none"></circle>
      <circle cx="50" cy="46" r="1.6" fill="#2a201a" stroke="none"></circle>
      <path d="M36,41 l-2,-2 M55,41 l2,-2" stroke-width="1.6"></path>
      <path d="M45,47 q-1.4,4 0,5.5" fill="none" stroke-width="1.8"></path>
      <path d="M41,57 q4,2 8,0" fill="none" stroke-width="2.2"></path>
  </g>
</svg>