<svg xmlns="http://www.w3.org/2000/svg" viewBox="0 0 90 104" width="90" height="104" style="--skin:#e6bf48;--skinSh:#caa238">
  <g stroke="#2a201a" stroke-width="3" stroke-linejoin="round" stroke-linecap="round" style="paint-order:stroke">
    <ellipse cx="45" cy="99" rx="23" ry="3.6" fill="rgba(0,0,0,.16)" stroke="none"></ellipse>
    <path d="M30,96 H60 L57,89 H33 Z" fill="#cfc4a6" stroke-width="3"></path>
    <path d="M30,90 C30,80 36,76 40,74 Q45,72 50,74 C54,76 60,80 60,90 Z" style="fill:var(--skinSh)" stroke-width="3"></path>
    <path d="M40,74 q5,4 10,0" fill="none" stroke-width="1.8" opacity=".45"></path>
      <path d="M22,46 C18,24 32,14 45,14 C58,14 72,24 68,46 C62,38 54,36 45,36 C36,36 28,38 22,46 Z" fill="#cdc7ba" stroke-width="3"></path>
      <path style="fill:var(--skin)" d="M31,40 C31,32 59,32 59,40 C59,47 55,52 50,54 L40,54 C35,52 31,47 31,40 Z" stroke-width="3"></path>
      <path d="M30,46 C31,60 38,71 45,71 C52,71 59,60 60,46 C54,53 50,55 45,55 C40,55 36,53 30,46 Z" fill="#cdc7ba" stroke-width="3"></path>
      <path d="M34,41 q5,-3 9,-1 M47,40 q5,-2 9,1" fill="none" stroke-width="2.4"></path>
      <circle cx="40" cy="45" r="4.3" fill="#fbf7ee" stroke-width="2"></circle>
      <circle cx="51" cy="45" r="4.3" fill="#fbf7ee" stroke-width="2"></circle>
      <circle cx="40" cy="46" r="1.7" fill="#2a201a" stroke="none"></circle>
      <circle cx="51" cy="46" r="1.7" fill="#2a201a" stroke="none"></circle>
      <path style="fill:var(--skin)" d="M44,46 q-2,6 0,8 q2,1 3,-1 q1,-5 -1,-7 Z" stroke-width="2"></path>
      <path d="M40,58 q5,2 9,0" fill="none" stroke-width="2"></path>
      <g fill="#e6bf48" stroke="#9a6f17" stroke-width="1"><path d="M30,33 q-7,-2 -10,2 q6,1 9,3 Z"></path><path d="M60,33 q7,-2 10,2 q-6,1 -9,3 Z"></path><path d="M34,30 q-5,-4 -10,-2 q5,1 8,4 Z"></path><path d="M56,30 q5,-4 10,-2 q-5,1 -8,4 Z"></path></g>
  </g>
</svg>