<svg xmlns="http://www.w3.org/2000/svg" viewBox="0 0 90 104" width="90" height="104" style="--skin:#e6bf48;--skinSh:#caa238">
  <g stroke="#2a201a" stroke-width="3" stroke-linejoin="round" stroke-linecap="round" style="paint-order:stroke">
    <ellipse cx="45" cy="99" rx="23" ry="3.6" fill="rgba(0,0,0,.16)" stroke="none"></ellipse>
    <path d="M30,96 H60 L57,89 H33 Z" fill="#cfc4a6" stroke-width="3"></path>
    <path d="M30,90 C30,80 36,76 40,74 Q45,72 50,74 C54,76 60,80 60,90 Z" style="fill:var(--skinSh)" stroke-width="3"></path>
    <path d="M40,74 q5,4 10,0" fill="none" stroke-width="1.8" opacity=".45"></path>
      <path style="fill:var(--skin)" d="M30,46 C30,34 60,34 60,46 C60,57 53,66 45,66 C37,66 30,57 30,46 Z" stroke-width="3"></path>
      <ellipse style="fill:var(--skin)" cx="28" cy="49" rx="3.4" ry="4.4" stroke-width="2.2"></ellipse>
      <ellipse style="fill:var(--skin)" cx="62" cy="49" rx="3.4" ry="4.4" stroke-width="2.2"></ellipse>
      <path d="M30,41 C32,29 58,29 60,41 C54,37 36,37 30,41 Z" fill="#d8c89c" stroke-width="3"></path>
      <ellipse cx="45" cy="31" rx="7" ry="4" fill="#d8c89c" stroke-width="2.6"></ellipse>
      <path d="M31,37 q-9,-3 -14,1 q6,1 9,4 q-7,0 -10,3 q9,1 15,-2 Z" fill="#fbf7ee" stroke-width="2"></path>
      <path d="M59,37 q9,-3 14,1 q-6,1 -9,4 q7,0 10,3 q-9,1 -15,-2 Z" fill="#fbf7ee" stroke-width="2"></path>
      <circle cx="39" cy="47" r="5" fill="#fbf7ee" stroke-width="2.2"></circle>
      <circle cx="51" cy="47" r="5" fill="#fbf7ee" stroke-width="2.2"></circle>
      <circle cx="40" cy="48" r="1.8" fill="#2a201a" stroke="none"></circle>
      <circle cx="52" cy="48" r="1.8" fill="#2a201a" stroke="none"></circle>
      <path style="fill:var(--skin)" d="M44,48 q-2,4 0,5 q2,1 3,-1 Z" stroke-width="2"></path>
      <path d="M38,59 Q46,63 53,58" fill="none" stroke-width="2.6"></path>
  </g>
</svg>