<svg xmlns="http://www.w3.org/2000/svg" viewBox="0 0 90 104" width="90" height="104" style="--skin:#e6bf48;--skinSh:#caa238">
  <g stroke="#2a201a" stroke-width="3" stroke-linejoin="round" stroke-linecap="round" style="paint-order:stroke">
    <ellipse cx="45" cy="99" rx="23" ry="3.6" fill="rgba(0,0,0,.16)" stroke="none"></ellipse>
    <path d="M30,96 H60 L57,89 H33 Z" fill="#cfc4a6" stroke-width="3"></path>
    <path d="M30,90 C30,80 36,76 40,74 Q45,72 50,74 C54,76 60,80 60,90 Z" style="fill:var(--skinSh)" stroke-width="3"></path>
    <path d="M40,74 q5,4 10,0" fill="none" stroke-width="1.8" opacity=".45"></path>
      <g stroke="#7d8a6a" stroke-width="2.6" fill="none" stroke-linecap="round"><line x1="45" y1="7" x2="45" y2="22"></line><line x1="38" y1="16" x2="38" y2="8"></line><line x1="52" y1="16" x2="52" y2="8"></line><path d="M38,16 Q45,20 52,16"></path></g>
      <path d="M22,46 C18,24 32,16 45,16 C58,16 72,24 68,46 C62,38 54,36 45,36 C36,36 28,38 22,46 Z" fill="#9bb39a" stroke-width="3"></path>
      <path style="fill:var(--skin)" d="M31,42 C31,34 59,34 59,42 C59,48 55,53 50,55 L40,55 C35,53 31,48 31,42 Z" stroke-width="3"></path>
      <path d="M30,48 C31,62 38,72 45,72 C52,72 59,62 60,48 C54,55 50,57 45,57 C40,57 36,55 30,48 Z" fill="#9bb39a" stroke-width="3"></path>
      <path d="M34,43 q5,-3 9,-1 M47,42 q5,-2 9,1" fill="none" stroke-width="2.4"></path>
      <circle cx="40" cy="47" r="4.3" fill="#fbf7ee" stroke-width="2"></circle>
      <circle cx="51" cy="47" r="4.3" fill="#fbf7ee" stroke-width="2"></circle>
      <circle cx="40" cy="48" r="1.7" fill="#2a201a" stroke="none"></circle>
      <circle cx="51" cy="48" r="1.7" fill="#2a201a" stroke="none"></circle>
      <path style="fill:var(--skin)" d="M44,48 q-2,6 0,8 q2,1 3,-1 q1,-5 -1,-7 Z" stroke-width="2"></path>
      <path d="M40,60 q5,2 9,0" fill="none" stroke-width="2"></path>
  </g>
</svg>