<svg xmlns="http://www.w3.org/2000/svg" viewBox="0 0 90 104" width="90" height="104" style="--skin:#e6bf48;--skinSh:#caa238">
  <g stroke="#2a201a" stroke-width="3" stroke-linejoin="round" stroke-linecap="round" style="paint-order:stroke">
    <ellipse cx="45" cy="99" rx="23" ry="3.6" fill="rgba(0,0,0,.16)" stroke="none"></ellipse>
    <path d="M30,96 H60 L57,89 H33 Z" fill="#cfc4a6" stroke-width="3"></path>
    <path d="M30,90 C30,80 36,76 40,74 Q45,72 50,74 C54,76 60,80 60,90 Z" style="fill:var(--skinSh)" stroke-width="3"></path>
    <path d="M40,74 q5,4 10,0" fill="none" stroke-width="1.8" opacity=".45"></path>
      <path style="fill:var(--skin)" d="M32,48 C32,38 58,38 58,48 C58,58 52,66 45,66 C38,66 32,58 32,48 Z" stroke-width="3"></path>
      <path d="M30,40 C30,24 60,24 60,40 C60,42 58,43 56,43 L34,43 C32,43 30,42 30,40 Z" fill="#b98a3a" stroke-width="3"></path>
      <path d="M45,43 L45,30" fill="none" stroke-width="2"></path>
      <path d="M45,24 C45,14 53,12 56,16 C53,18 50,22 49,27 Z" fill="#b5532e" stroke-width="2.6"></path>
      <path d="M33,46 C31,53 33,60 36,64" fill="none" stroke-width="2.2"></path>
      <path d="M57,46 C59,53 57,60 54,64" fill="none" stroke-width="2.2"></path>
      <circle cx="40" cy="49" r="4.2" fill="#fbf7ee" stroke-width="2"></circle>
      <circle cx="50" cy="49" r="4.2" fill="#fbf7ee" stroke-width="2"></circle>
      <circle cx="40.5" cy="50" r="1.6" fill="#2a201a" stroke="none"></circle>
      <circle cx="50.5" cy="50" r="1.6" fill="#2a201a" stroke="none"></circle>
      <path d="M45,50 q-1.5,4 0,5.5" fill="none" stroke-width="1.8"></path>
      <path d="M40,59 q5,2 9,0" fill="none" stroke-width="2.2"></path>
  </g>
</svg>